<?xml version="1.0" encoding="utf-8"?>
<!-- Generator: Adobe Illustrator 28.0.0, SVG Export Plug-In . SVG Version: 6.00 Build 0)  -->
<svg version="1.1" id="Layer_1" xmlns="http://www.w3.org/2000/svg" xmlns:xlink="http://www.w3.org/1999/xlink" x="0px" y="0px"
	 viewBox="0 0 64 64" style="enable-background:new 0 0 64 64;" xml:space="preserve">
<style type="text/css">
	.st0{fill:#232F3E;}
</style>
<path class="st0" d="M55.3332,24.0001c0-0.0867-0.0067-0.1667-0.0267-0.2534v-0.0133c0-0.0267-0.02-0.06-0.0267-0.0867
	c-0.0133-0.06-0.0333-0.1133-0.0533-0.1666l-5.1933-12.0067c-0.2134-0.4867-0.6934-0.8067-1.2267-0.8067H15.1932
	c-0.5334,0-1.0134,0.3134-1.2267,0.8067l-5.1933,12c-0.02,0.06-0.04,0.12-0.0533,0.1733c-0.0067,0.0267-0.02,0.06-0.0267,0.0867
	v0.0133c-0.0133,0.08-0.0267,0.1667-0.0267,0.2467c0,2.0533,0.7667,3.9133,2.0067,5.26c0,0.0267-0.0067,0.0467-0.0067,0.0733
	v22.6667c0,0.7333,0.6,1.3333,1.3333,1.3333h40c0.7334,0,1.3334-0.6,1.3334-1.3333v-22.66c0,0,0-0.0467-0.0067-0.0733
	C54.5665,27.9134,55.3332,26.0534,55.3332,24.0001z M52.6532,24.2534c-0.1134,2.5133-1.9334,4.52-4.1534,4.52
	c-2.22,0-4.1666-2.14-4.1666-4.7667c0-0.0133,0-0.0266,0-0.04c0-0.0466-0.0067-0.0933-0.0134-0.14
	c0-0.0466-0.0133-0.0933-0.02-0.1333c0-0.0133,0-0.0267-0.0066-0.0467l-2.8734-10.3066h6.52l4.7267,10.92L52.6532,24.2534z
	 M30.6665,13.3334v10.6667c0,2.6333-1.8667,4.7667-4.1667,4.7667s-4.0866-2.0534-4.16-4.6134l3.02-10.8267h5.3067V13.3334z
	 M33.3332,13.3334h5.3066l3.02,10.8333c-0.0466,2.5467-1.8933,4.6001-4.16,4.6001c-2.2666,0-4.1666-2.1401-4.1666-4.7667V13.3334z
	 M16.0665,13.3334h6.52l-2.8733,10.3067c0,0,0,0.0266-0.0067,0.0466c-0.0133,0.0467-0.02,0.0867-0.02,0.1334
	c0,0.0466-0.0133,0.0933-0.0133,0.14c0,0.0133,0,0.0266,0,0.04c0,2.6333-1.8667,4.7667-4.1667,4.7667s-4.04-2.0067-4.1533-4.5201
	l4.7266-10.92L16.0665,13.3334z M26.6665,50.6667h-5.3333V37.3334h5.3333V50.6667z M50.6665,50.6667H29.3332V36.0001
	c0-0.7334-0.6-1.3334-1.3334-1.3334h-8c-0.7333,0-1.3333,0.6-1.3333,1.3334v14.6666h-5.3333v-19.62
	c0.68,0.2467,1.4066,0.3867,2.1666,0.3867c2.2534,0,4.2534-1.2,5.5-3.04c1.2467,1.84,3.2467,3.04,5.5,3.04
	c2.2534,0,4.2534-1.2,5.5-3.04c1.2467,1.84,3.2467,3.04,5.5,3.04c2.2534,0,4.2667-1.1933,5.5067-3.0267
	c1.2467,1.8334,3.24,3.0267,5.4933,3.0267c0.76,0,1.4867-0.14,2.1667-0.3867V50.6667z"/>
<path class="st0" d="M43.9998,34.6667h-8c-0.7333,0-1.3333,0.6-1.3333,1.3334v8c0,0.7333,0.6,1.3333,1.3333,1.3333h8
	c0.7334,0,1.3334-0.6,1.3334-1.3333v-8C45.3332,35.2667,44.7332,34.6667,43.9998,34.6667z M42.6665,42.6667h-5.3333v-5.3333h5.3333
	V42.6667z"/>
</svg>
