<?xml version="1.0" encoding="UTF-8"?>
<svg width="24px" height="24px" viewBox="0 0 24 24" version="1.1" xmlns="http://www.w3.org/2000/svg" xmlns:xlink="http://www.w3.org/1999/xlink">
    <title>star</title>
    <defs>
        <rect id="path-1" x="0" y="0" width="24" height="24"></rect>
    </defs>
    <g id="Page-1" stroke="none" stroke-width="1" fill="none" fill-rule="evenodd">
        <g id="star">
            <mask id="mask-2" fill="white">
                <use xlink:href="#path-1"></use>
            </mask>
            <g id="Rectangle"></g>
            <path d="M11.9999,14.95 L14.3249,16.725 C14.6082,16.925 14.8832,16.9333 15.1499,16.75 C15.4166,16.5666 15.4999,16.3166 15.3999,16 L14.4999,13.05 L16.7749,11.4 C17.0582,11.2166 17.1499,10.9706 17.0499,10.662 C16.9499,10.354 16.7332,10.2 16.3999,10.2 L13.5999,10.2 L12.6249,7.07496 C12.5249,6.7583 12.3166,6.59996 11.9999,6.59996 C11.6832,6.59996 11.4749,6.7583 11.3749,7.07496 L10.3999,10.2 L7.5999,10.2 C7.28324,10.2 7.0709,10.354 6.9629,10.662 C6.85424,10.9706 6.94157,11.2166 7.2249,11.4 L9.4999,13.05 L8.5999,16 C8.4999,16.3166 8.58324,16.5666 8.8499,16.75 C9.11657,16.9333 9.39157,16.925 9.6749,16.725 L11.9999,14.95 Z M11.9999,22.475 C10.5332,22.475 9.16657,22.2 7.8999,21.65 C6.63324,21.1 5.52924,20.3543 4.5879,19.413 C3.6459,18.471 2.8999,17.3666 2.3499,16.1 C1.7999,14.8333 1.5249,13.4666 1.5249,12 C1.5249,10.5333 1.7999,9.16663 2.3499,7.89996 C2.8999,6.6333 3.6459,5.52896 4.5879,4.58696 C5.52924,3.64563 6.63324,2.89996 7.8999,2.34996 C9.16657,1.79996 10.5332,1.52496 11.9999,1.52496 C13.4666,1.52496 14.8332,1.79996 16.0999,2.34996 C17.3666,2.89996 18.4709,3.64563 19.4129,4.58696 C20.3542,5.52896 21.0999,6.6333 21.6499,7.89996 C22.1999,9.16663 22.4749,10.5333 22.4749,12 C22.4749,13.4666 22.1999,14.8333 21.6499,16.1 C21.0999,17.3666 20.3542,18.471 19.4129,19.413 C18.4709,20.3543 17.3666,21.1 16.0999,21.65 C14.8332,22.2 13.4666,22.475 11.9999,22.475 Z" id="Shape" fill="#FFFFFF" fill-rule="nonzero" mask="url(#mask-2)"></path>
        </g>
    </g>
</svg>