<?xml version="1.0" encoding="utf-8"?>
<!-- Generator: Adobe Illustrator 28.0.0, SVG Export Plug-In . SVG Version: 6.00 Build 0)  -->
<svg version="1.1" id="Layer_1" xmlns="http://www.w3.org/2000/svg" xmlns:xlink="http://www.w3.org/1999/xlink" x="0px" y="0px"
	 viewBox="0 0 64 64" style="enable-background:new 0 0 64 64;" xml:space="preserve">
<style type="text/css">
	.st0{fill:#232F3E;}
</style>
<path class="st0" d="M47.8,21L47.8,21c-0.9,0-1.2-0.1-1.8-0.8c-0.5-0.6-1.3-0.6-1.9-0.2c-0.6,0.5-0.6,1.3-0.2,1.9
	c0.8,1,1.6,1.5,2.6,1.7V24c0,0.7,0.6,1.3,1.3,1.3c0.7,0,1.3-0.6,1.3-1.3v-0.6c1.4-0.5,2.4-1.8,2.4-3.2c0-1.8-1.4-3.1-3.6-3.5
	c-1.3-0.2-1.3-0.6-1.3-0.8c0-0.4,0.5-0.8,1.1-0.8c0.5,0,0.8,0.1,1.5,1c0.5,0.6,1.3,0.6,1.9,0.2c0.6-0.5,0.6-1.3,0.2-1.9
	c-0.6-0.7-1.2-1.3-2.1-1.7V12c0-0.7-0.6-1.3-1.3-1.3s-1.3,0.6-1.3,1.3v0.6c-1.5,0.5-2.5,1.8-2.5,3.3c0,0.9,0.3,2.9,3.6,3.5
	c0.6,0.1,1.4,0.3,1.4,0.8C49,20.6,48.5,21,47.8,21L47.8,21z"/>
<path class="st0" d="M28,22.7c-5.1,0-9.3,4.2-9.3,9.3c0,5.1,4.2,9.3,9.3,9.3c5.1,0,9.3-4.2,9.3-9.3C37.3,26.9,33.1,22.7,28,22.7z
	 M28,38.7c-3.7,0-6.7-3-6.7-6.7c0-3.7,3-6.7,6.7-6.7c3.7,0,6.7,3,6.7,6.7C34.7,35.7,31.7,38.7,28,38.7z"/>
<path class="st0" d="M60,18c0-6.6-5.4-12-12-12c-5.7,0-10.5,4-11.7,9.3c-0.6-0.3-1.2-0.5-1.8-0.8l-0.7-4.3C33.6,8.9,32.5,8,31.2,8
	h-6.4c-1.3,0-2.4,0.9-2.6,2.2l-0.7,4.3c-1.9,0.7-3.7,1.8-5.3,3.1l-4.1-1.5c-1.2-0.5-2.6,0-3.2,1.2l-3.2,5.5
	c-0.7,1.1-0.4,2.6,0.6,3.4l3.4,2.8c-0.2,1-0.3,2-0.3,3.1s0.1,2.1,0.3,3.1l-3.4,2.8c-1,0.8-1.3,2.3-0.6,3.4l3.2,5.5
	c0.6,1.1,2,1.6,3.2,1.2l4.1-1.5c1.6,1.3,3.4,2.3,5.3,3.1l0.7,4.3c0.2,1.3,1.3,2.2,2.6,2.2h6.4c1.3,0,2.4-0.9,2.6-2.2l0.7-4.3
	c1.9-0.7,3.7-1.8,5.3-3.1l4.1,1.5c1.2,0.5,2.6,0,3.2-1.2l3.2-5.6c0.7-1.1,0.4-2.6-0.6-3.4l-3.4-2.8c0.2-1,0.3-2,0.3-3.1
	c0-0.7-0.1-1.4-0.1-2.1C47,30,47.5,30,48,30C54.6,30,60,24.6,60,18L60,18z M48,8.7c5.1,0,9.3,4.2,9.3,9.3s-4.2,9.3-9.3,9.3
	c-5.1,0-9.3-4.2-9.3-9.3S42.9,8.7,48,8.7z M44,32c0,1.1-0.1,2.2-0.4,3.3l-0.2,0.8l4.6,3.8l-3.2,5.5l-5.6-2.1l-0.6,0.5
	c-1.6,1.5-3.6,2.6-5.7,3.3l-0.8,0.3l-1,5.9h-6.4l-1-5.9L23,47.2c-2.1-0.7-4.1-1.8-5.7-3.3l-0.6-0.5l-5.6,2.1l-3.2-5.6l4.6-3.8
	l-0.2-0.8C12.1,34.2,12,33.1,12,32c0-1.1,0.1-2.2,0.4-3.3l0.2-0.8l-4.6-3.8l3.2-5.6l5.6,2.1l0.6-0.5c1.7-1.5,3.6-2.6,5.7-3.3
	l0.8-0.3l1-5.9h6.4l1,5.9l0.8,0.3c1.1,0.3,2.1,0.8,3.1,1.4c0.1,5,3.3,9.3,7.7,11C43.9,30.1,44,31.1,44,32L44,32z"/>
</svg>
