<?xml version="1.0" encoding="utf-8"?>
<!-- Generator: Adobe Illustrator 28.0.0, SVG Export Plug-In . SVG Version: 6.00 Build 0)  -->
<svg version="1.1" id="Layer_1" xmlns="http://www.w3.org/2000/svg" xmlns:xlink="http://www.w3.org/1999/xlink" x="0px" y="0px"
	 viewBox="0 0 64 64" style="enable-background:new 0 0 64 64;" xml:space="preserve">
<style type="text/css">
	.st0{fill:#232F3E;}
</style>
<path class="st0" d="M50.9921,12.4268c-2.6933-2.6934-6.2733-4.1734-10.08-4.1734c-3.8066,0-7.3866,1.4867-10.08,4.1734
	c-1.9066,1.9066-3.2333,4.3-3.8266,6.9266c0,0.0267-0.0067,0.0467-0.0134,0.0733l-0.0733,0.4334l-1.38-2.14
	c-0.4-0.62-1.2267-0.7933-1.84-0.4c-0.62,0.4-0.7933,1.2266-0.3933,1.8466l3.1666,4.9c0.1934,0.3,0.4934,0.5067,0.84,0.5801
	c0.0934,0.02,0.1867,0.0266,0.28,0.0266c0.2534,0,0.5067-0.0733,0.72-0.2133l4.9-3.1667c0.62-0.4,0.7934-1.2266,0.3934-1.8466
	c-0.4-0.62-1.2267-0.7934-1.84-0.4001l-2.2467,1.4467l0.1-0.6c0.4867-2.1133,1.5533-4.0466,3.1-5.5933
	c2.1867-2.1867,5.1-3.3933,8.1933-3.3933c3.0934,0,6.0067,1.2066,8.1934,3.3933c2.1866,2.1867,3.3933,5.1,3.3933,8.1933
	c0,3.0934-1.2067,6.0067-3.3933,8.1933c-2.1867,2.1867-5.1,3.3934-8.1934,3.3934c-3.0933,0-6.0066-1.2067-8.1933-3.3934
	c-0.04-0.04-0.0867-0.08-0.14-0.12c-5.5667-5.4466-14.5267-5.4066-20.0533,0.1134c-5.56,5.56-5.56,14.6066,0,20.1666
	c2.6933,2.6934,6.2733,4.1734,10.08,4.1734c3.8066,0,7.3866-1.4867,10.08-4.1734c1.9066-1.9066,3.2333-4.3,3.8333-6.96l0.0733-0.38
	l1.5467,2.3934c0.2533,0.3933,0.6867,0.6133,1.12,0.6133c0.2467,0,0.5-0.0667,0.72-0.2133c0.62-0.4,0.7933-1.2267,0.3933-1.8467
	l-3.3066-5.1133c-0.4-0.62-1.2267-0.7934-1.84-0.4l-5.1134,3.3066c-0.62,0.4-0.7933,1.2267-0.3933,1.8467
	c0.4,0.62,1.2267,0.7933,1.84,0.4l2.4333-1.5733l-0.08,0.4266c-0.48,2.1267-1.5533,4.0734-3.1066,5.6267
	c-2.1867,2.1867-5.1,3.3934-8.1934,3.3934c-3.0933,0-6.0066-1.2067-8.1933-3.3934c-4.52-4.52-4.52-11.8733,0-16.3933
	c2.1867-2.1867,5.1-3.3934,8.1933-3.3934c3.0934,0,6.0067,1.2067,8.1934,3.3934c0.04,0.04,0.0866,0.08,0.14,0.12
	c2.68,2.62,6.2133,4.06,9.9666,4.06c3.7534,0,7.3867-1.48,10.08-4.1734c2.6934-2.6933,4.1734-6.2733,4.1734-10.08
	C55.1655,18.7001,53.6855,15.1201,50.9921,12.4268z M27.2255,43.5734c0-2.2133-1.6734-3.78-4.4534-4.18
	c-2.1266-0.3333-2.12-1.16-2.12-1.5133c0-0.8134,0.88-1.5067,1.92-1.5067c0.9467-0.0133,1.3267,0.2533,2.3,1.44
	c0.4667,0.5667,1.3134,0.6467,1.88,0.18c0.5667-0.4667,0.6467-1.3067,0.18-1.88c-0.8333-1.0067-1.6666-1.88-3-2.2333v-1.1867
	c0-0.7333-0.6-1.3333-1.3333-1.3333c-0.7333,0-1.3333,0.6-1.3333,1.3333v1.1867c-1.8934,0.5133-3.28,2.1133-3.28,3.9933
	c0,1.2933,0.5666,3.5533,4.3933,4.1533c1.4533,0.2067,2.1867,0.7267,2.1867,1.5467c0,0.8-0.9334,1.5067-2,1.5067h-0.0134
	c-1.3733,0-1.8066-0.2-2.6933-1.2467c-0.4733-0.56-1.32-0.6267-1.88-0.1533c-0.56,0.48-0.6267,1.32-0.1533,1.88
	c1.1,1.3,2.0533,1.9,3.46,2.1v1.0333c0,0.7333,0.6,1.3333,1.3333,1.3333c0.7333,0,1.3333-0.6,1.3333-1.3333v-1.1267
	c1.9-0.5266,3.2867-2.1133,3.2867-3.9866L27.2255,43.5734z M47.2921,26.5201c-0.6-0.4267-1.4333-0.2867-1.86,0.3133
	c-0.18,0.24-0.3666,0.38-0.6866,0.5c-0.3134,0.1133-0.76,0.1733-1.2667,0.1733c-0.4467,0-0.7667-0.1133-1.06-0.2933
	c-0.44-0.2667-0.8133-0.74-1.0533-1.1667c-0.04-0.0666-0.0667-0.1266-0.1-0.1933h1.6c0.7333,0,1.3333-0.6,1.3333-1.3333
	c0-0.7334-0.6-1.3334-1.3333-1.3334h-2.2867c0-0.1133-0.0133-0.2333-0.0133-0.3466c0-0.24,0.0133-0.4667,0.0333-0.6867h2.8733
	c0.7334,0,1.3334-0.6,1.3334-1.3333c0-0.7334-0.6-1.3334-1.3334-1.3334h-2.1666c0.26-0.5333,0.58-0.9133,0.9133-1.1733
	c0.4333-0.34,0.88-0.4733,1.2533-0.4733c0.9934,0,1.46,0.24,1.6867,0.3867c0.1133,0.08,0.1733,0.14,0.1933,0.1666v0.0134h0.0134
	c0.3466,0.6066,1.1066,0.8466,1.74,0.5333c0.66-0.3267,0.9333-1.1267,0.6066-1.7867c-0.0733-0.1533-0.3666-0.6666-1.06-1.1333
	c-0.6866-0.4667-1.74-0.8467-3.18-0.8467c-1.02,0-2.04,0.3667-2.9,1.0467c-0.8466,0.6667-1.54,1.6333-1.9733,2.8467
	c0,0-0.0733,0.1799-0.1533,0.4199h-1.66c-0.7334,0-1.3334,0.6-1.3334,1.3334c0,0.7333,0.6,1.3333,1.3334,1.3333h1.14
	c-0.0134,0.22-0.0267,0.4467-0.0267,0.6867c0,0.1133,0.0067,0.2333,0.0133,0.3466h-1.1333c-0.7333,0-1.3333,0.6-1.3333,1.3334
	c0,0.7333,0.6,1.3333,1.3333,1.3333h1.6267c0.0266,0.08,0.0466,0.1534,0.08,0.2334c0.0266,0.0866,0.2933,0.9933,1.02,1.9799
	c0.3666,0.4934,0.8533,1.0134,1.52,1.42c0.66,0.4067,1.5066,0.6867,2.4533,0.6867c0.7067,0,1.44-0.0733,2.1667-0.3333
	c0.7266-0.2534,1.4466-0.7334,1.96-1.46C48.0321,27.7801,47.8921,26.9467,47.2921,26.5201z"/>
</svg>
