<?xml version="1.0" encoding="UTF-8"?><svg id="Layer_2" xmlns="http://www.w3.org/2000/svg" viewBox="0 0 1189.02 99.27"><defs><style>.cls-1{fill:#2d2d2d;stroke-width:0px;}</style></defs><g id="Layer_1-2"><path class="cls-1" d="M512.81,49.55C510.76,19.26,536.1-.14,563.17,0c26.51.14,50.75,19.55,50.23,50.23-.49,28.9-21.65,49.13-51.46,48.99-26.82-.12-50.83-19-49.13-49.66ZM562.42,21.29c-17.88,1.3-26.64,12.02-26.79,28.2-.15,16.28,8.9,27.69,26.98,28.37,16.03.6,27.41-12.02,27.34-29.09-.06-15.68-11.77-27.37-27.53-27.48Z"/><path class="cls-1" d="M.11,49.51C.11,36.35.3,23.19,0,10.04-.11,4.94.87,2.77,6.72,2.67c12.31-.22,24.64-1.2,36.87.56,13.24,1.9,25.38,6.16,34.3,17.17,7.89,9.75,10.18,21.15,8.74,32.82-3.13,25.24-17.63,39.14-42.95,42.93-12.92,1.93-25.93.74-38.9.98-4.29.08-4.66-2.96-4.66-6.15-.02-13.82,0-27.64,0-41.46h-.02ZM23.04,49.72c0,6.83-.01,13.65,0,20.48,0,2.22.01,4.67,3.05,4.78,8.49.32,17.03.82,24.96-3.24,9.05-4.63,12.64-12.78,12.71-22.18.07-9.25-3.55-17.11-12.4-21.75-7.43-3.89-15.41-3.57-23.39-3.69-3.67-.05-5.04,1.55-4.98,5.12.13,6.82.04,13.65.04,20.48Z"/><path class="cls-1" d="M650.09,50.01c0-13.48-.03-26.97.02-40.45.02-5.94,1.09-7.15,6.9-7.21,11.49-.11,23.01-.59,34.45.15,10.58.68,20.88,3.24,27.22,13.14,9.28,14.47,3.5,35.6-11.47,40.99-3.45,1.24-2.13,2.99-.98,4.92,5.82,9.7,11.67,19.38,17.45,29.1,3.01,5.07,2.26,6.43-3.52,6.51-4.99.06-9.99-.08-14.98.03-3.38.08-5.53-1.23-7.08-4.34-4.54-9.07-9.32-18.02-14.05-26.99-.85-1.61-1.68-3.38-2.98-4.55-1.83-1.63-4.44-1.78-6.62-1.07-2.19.71-1.42,3.13-1.43,4.85-.08,8.49-.12,16.98-.04,25.47.05,4.77-1.84,7.09-6.88,6.66-3.47-.29-6.99-.18-10.48-.03-4.12.18-5.81-1.76-5.52-5.73.02-.33,0-.67,0-1,0-13.48,0-26.97,0-40.45ZM672.89,31.74c0,2,.07,3.99-.02,5.99-.1,2.07.76,3.21,2.85,3.16,5.93-.14,11.88.81,17.69-1.71,4.11-1.78,6.06-4.21,5.63-8.73-.43-4.44-3.19-6.42-7.09-7.13-3.09-.57-6.26-.91-9.41-.98-9.57-.21-9.57-.14-9.66,9.4Z"/><path class="cls-1" d="M264.07,97.16c-12.88-.15-10.56,1.83-15.96-11.01-3.68-8.74-3.46-8.84-12.82-8.83-6.66,0-13.33.07-19.99,0-3.47-.04-5.12,1.38-6.44,4.8-7.09,18.27-3.67,14.74-20.65,15.03-10.18.18-10.33-.51-6.22-9.86,11.43-26.03,22.72-52.13,33.82-78.3,2.06-4.85,4.9-7.27,10.19-6.72,1.81.19,3.66.06,5.49.06,3.91-.01,6.39,1.64,8,5.43,8,18.82,16.24,37.55,24.39,56.31,3.98,9.15,8.02,18.28,11.89,27.48,1.75,4.16.86,5.38-3.7,5.59-2.66.12-5.33.02-7.99.02ZM226.86,57.23c1.98,0,3.97.06,5.95-.02,2.18-.08,2.99-1.27,2.23-3.31-2.03-5.4-4.12-10.78-6.19-16.17-.3-.78-.61-1.64-1.66-1.45-.97.18-1.04,1.15-1.34,1.9-1.5,3.67-3.07,7.32-4.5,11.02-3.13,8.1-3.1,8.11,5.52,8.04Z"/><path class="cls-1" d="M836.35,97.17c-13.53-.04-11.18,1.15-16.56-11.08-3.83-8.72-3.73-8.76-12.99-8.76-6.16,0-12.34.21-18.49-.07-4.19-.19-6.52,1.51-7.87,5.32-1.17,3.29-2.95,6.37-3.93,9.7-1.11,3.79-3.62,4.88-7.11,4.88-4.33,0-8.66.1-12.99-.01-5-.13-6.02-1.55-4.06-6.24,4.18-9.97,8.62-19.84,12.91-29.77,7.58-17.55,15.23-35.07,22.61-52.7,1.67-3.99,3.94-5.54,8.25-5.52,12.84.06,12.85-.09,18.09,11.94,10.83,24.85,21.67,49.69,32.46,74.56,2.89,6.65,2.12,7.69-5.33,7.75-1.67.02-3.33,0-5,0ZM798.97,57.27c1.66,0,3.32-.04,4.98,0,2.68.08,3.81-1.16,2.84-3.68-2.01-5.26-4.17-10.45-6.3-15.66-.3-.73-.53-1.74-1.61-1.58-.92.14-1.17,1.03-1.47,1.81-1.36,3.55-2.65,7.12-4.11,10.63-3.55,8.53-3.58,8.52,5.67,8.48Z"/><path class="cls-1" d="M409.09,49.38c0-13.33.15-26.66-.08-39.98-.08-5.02,2.14-7.01,6.79-7.04,13.49-.09,27.02-.73,40.42.96,11.17,1.41,22.97,8.31,24.7,23.47,1.71,14.97-3.82,26.32-16.49,31.41-7.69,3.09-15.91,3.17-24.12,3.01-7.18-.14-7.22.01-7.23,7.22-.01,7.5-.15,15,.05,22.49.12,4.56-1.87,6.38-6.25,6.26-3.66-.1-7.33.04-10.99-.02-5.64-.11-6.75-1.15-6.78-6.79-.06-13.66-.02-27.32-.02-40.98ZM442.66,40.97c1.99,0,4.01.2,5.98-.04,4.69-.57,8.65-4.42,8.99-8.7.42-5.2-3.22-7.35-7.25-8.86-3.97-1.49-8.21-.94-12.36-1.09-3.64-.13-5.24,1.41-4.97,5.04.11,1.49,0,2.99,0,4.49q0,9.38,9.59,9.16Z"/><path class="cls-1" d="M334.21,99.27c-10.12-.13-19.19-3.38-27.41-9.21-3.22-2.28-4.76-4.45-.86-7.8,3.13-2.69,5.78-5.97,8.47-9.15,2.48-2.94,4.62-3.63,7.86-.7,5.28,4.77,11.67,6.01,18.65,4.54,3.8-.8,6.34-2.77,7.2-6.66.9-4.08-1.75-6.18-4.66-7.97-4.31-2.65-9.29-3.58-14.05-5.05-4.15-1.28-8.01-3.1-11.82-5.24-15.88-8.93-14.6-29.94-3.96-40.82,13.17-13.45,40.12-14.88,54.83-3.14,2.38,1.9,2.68,3.5.62,5.73-3.16,3.42-6.29,6.87-9.27,10.44-2.09,2.5-3.81,2.65-6.76.88-5.68-3.42-11.83-5.38-18.43-1.97-2.68,1.38-4.78,3.19-5.05,6.3-.27,3.05,1.81,4.94,4.12,6.37,4.3,2.68,9.35,3.41,14.06,5.03,5.36,1.84,10.8,3.49,15.2,7.27,13.67,11.76,10.85,32.82-2.54,43.15-7.52,5.8-15.06,7.92-26.2,7.98Z"/><path class="cls-1" d="M994.47,99.24c-25.93-.24-44.8-12.56-51.28-32.78-5.95-18.55-3.13-35.91,9.84-50.39,13.24-14.78,30.64-18.25,49.74-14.5,7.28,1.43,13.18,5.25,18.49,10.25,2.18,2.05,2.39,3.76-.02,5.72-4.13,3.36-8.23,6.76-12.3,10.18-1.7,1.43-3.02.66-4.4-.49-7.68-6.34-16.25-7.59-25.16-3.41-9.2,4.31-13.48,11.96-14.6,22.16-1.08,9.85,1.26,18.25,7.95,25.21,8.69,9.04,23.03,8.95,31.7-.1,2.79-2.91,4.79-2.74,7.56-.45,3.47,2.86,6.99,5.66,10.7,8.2,3.15,2.16,3.23,3.93.63,6.72-8.84,9.48-19.9,13.4-28.84,13.68Z"/><path class="cls-1" d="M1092.12,30.11c16.24-1.41,30.63,10.73,34.02,23.87,5.17,20-4.93,39.21-26.32,43.27-12.93,2.46-24.84.54-34.63-9.22-10.07-10.03-12.79-24.1-7.18-37.77,5-12.18,16.91-20.02,30.61-20.15,1.17-.01,2.33,0,3.5,0ZM1105.11,64.31c.03-9.76-4.76-14.86-13.97-14.85-8.07,0-14.03,6.1-14.05,14.34-.02,8.73,6.24,15.27,14.51,15.16,8.05-.11,13.49-6,13.52-14.64Z"/><path class="cls-1" d="M123.15,49.28c0-13.33.13-26.65-.07-39.97-.07-4.69,1.88-6.83,6.38-6.91,3.83-.07,7.66-.02,11.49-.06,3.67-.03,5.49,1.9,5.85,5.42.02.17.07.33.07.5-.13,27.8.85,55.61-.5,83.4-.21,4.36-2.37,5.78-6.42,5.55-3.15-.18-6.33,0-9.49-.04-6.03-.08-7.25-1.21-7.28-7.41-.08-13.49-.03-26.98-.03-40.47Z"/><path class="cls-1" d="M1176,97.2c-6.92.02-13.67-6.22-13.61-12.59.06-7.1,6.3-13.29,13.5-13.4,6.86-.1,13.11,6.1,13.13,13.02.02,7.05-5.9,12.95-13.02,12.97Z"/></g></svg>