<?xml version="1.0" encoding="UTF-8"?><svg id="Artwork" xmlns="http://www.w3.org/2000/svg" viewBox="0 0 96 96"><defs><style>.cls-1{stroke:#232f3e;}.cls-1,.cls-2{fill:none;stroke-linecap:round;stroke-linejoin:round;stroke-width:4px;}.cls-2{stroke:#f55600;}</style></defs><path class="cls-1" d="M22,54v-30c0-3.32,2.69-6,6-6h47.99c3.32,0,6,2.69,6,6v35.99c0,3.31-2.69,6-6,6h-21"/><line class="cls-1" x1="60" y1="58" x2="81" y2="58"/><line class="cls-1" x1="70" y1="78" x2="43" y2="78"/><line class="cls-1" x1="58" y1="67" x2="62" y2="78"/><path class="cls-2" d="M41.98,50.4c5.66,2.83,11.31,1.41,13.44-4.95"/><path class="cls-2" d="M47.64,44.74l2.54,13.02-19,19c-1.45,1.45-3.9,1.36-5.46-.21l-9.89-9.89c-1.57-1.57-1.66-4.01-.21-5.46l19-19,13.02,2.54Z"/></svg>