<?xml version="1.0" encoding="utf-8"?>
<!-- Generator: Adobe Illustrator 28.0.0, SVG Export Plug-In . SVG Version: 6.00 Build 0)  -->
<svg version="1.1" id="Layer_1" xmlns="http://www.w3.org/2000/svg" xmlns:xlink="http://www.w3.org/1999/xlink" x="0px" y="0px"
	 viewBox="0 0 64 64" style="enable-background:new 0 0 64 64;" xml:space="preserve">
<style type="text/css">
	.st0{fill-rule:evenodd;clip-rule:evenodd;fill:#232F3E;}
</style>
<path class="st0" d="M39.3,13.3c-1.5,0-2.7,1.2-2.7,2.7v8c0,1.5,1.2,2.7,2.7,2.7h8c1.5,0,2.7-1.2,2.7-2.7v-8c0-1.5-1.2-2.7-2.7-2.7
	H39.3z M34,16c0-2.9,2.4-5.3,5.3-5.3h8c2.9,0,5.3,2.4,5.3,5.3v8c0,2.9-2.4,5.3-5.3,5.3h-8c-2.9,0-5.3-2.4-5.3-5.3V16z"/>
<path class="st0" d="M28,16c0-2.2-1.8-4-4-4h-8c-2.2,0-4,1.8-4,4v8c0,2.2,1.8,4,4,4h8c2.2,0,4-1.8,4-4V16z M24,9.3
	c3.7,0,6.7,3,6.7,6.7v8c0,3.7-3,6.7-6.7,6.7h-8c-3.7,0-6.7-3-6.7-6.7v-8c0-3.7,3-6.7,6.7-6.7H24z"/>
<path class="st0" d="M16,37.3c-1.5,0-2.7,1.2-2.7,2.7v8c0,1.5,1.2,2.7,2.7,2.7h8c1.5,0,2.7-1.2,2.7-2.7v-8c0-1.5-1.2-2.7-2.7-2.7H16
	z M10.7,40c0-2.9,2.4-5.3,5.3-5.3h8c2.9,0,5.3,2.4,5.3,5.3v8c0,2.9-2.4,5.3-5.3,5.3h-8c-2.9,0-5.3-2.4-5.3-5.3V40z"/>
<path class="st0" d="M40,37.3c-1.5,0-2.7,1.2-2.7,2.7v8c0,1.5,1.2,2.7,2.7,2.7h8c1.5,0,2.7-1.2,2.7-2.7v-8c0-1.5-1.2-2.7-2.7-2.7H40
	z M34.7,40c0-2.9,2.4-5.3,5.3-5.3h8c2.9,0,5.3,2.4,5.3,5.3v8c0,2.9-2.4,5.3-5.3,5.3h-8c-2.9,0-5.3-2.4-5.3-5.3V40z"/>
<path class="st0" d="M21.3,16c0-0.7-0.6-1.3-1.3-1.3c-0.7,0-1.3,0.6-1.3,1.3v2.7H16c-0.7,0-1.3,0.6-1.3,1.3c0,0.7,0.6,1.3,1.3,1.3
	h2.7V24c0,0.7,0.6,1.3,1.3,1.3c0.7,0,1.3-0.6,1.3-1.3v-2.7H24c0.7,0,1.3-0.6,1.3-1.3c0-0.7-0.6-1.3-1.3-1.3h-2.7V16z"/>
</svg>
