<?xml version="1.0" encoding="utf-8"?>
<!-- Generator: Adobe Illustrator 28.0.0, SVG Export Plug-In . SVG Version: 6.00 Build 0)  -->
<svg version="1.1" id="Layer_1" xmlns="http://www.w3.org/2000/svg" xmlns:xlink="http://www.w3.org/1999/xlink" x="0px" y="0px"
	 viewBox="0 0 64 64" style="enable-background:new 0 0 64 64;" xml:space="preserve">
<style type="text/css">
	.st0{fill:#232F3E;}
</style>
<path class="st0" d="M21.3,16.7c1.1,0,2,0.9,2,2c0,1.1-0.9,2-2,2c-1.1,0-2-0.9-2-2C19.3,17.6,20.2,16.7,21.3,16.7z M33.3,34H40
	c0.7,0,1.3-0.6,1.3-1.3c0-0.7-0.6-1.3-1.3-1.3h-6.7c-0.7,0-1.3,0.6-1.3,1.3C32,33.4,32.6,34,33.3,34z M44,42H33.3
	c-0.7,0-1.3,0.6-1.3,1.3c0,0.7,0.6,1.3,1.3,1.3H44c0.7,0,1.3-0.6,1.3-1.3C45.3,42.6,44.7,42,44,42z M45.3,36.7h-12
	c-0.7,0-1.3,0.6-1.3,1.3s0.6,1.3,1.3,1.3h12c0.7,0,1.3-0.6,1.3-1.3S46.1,36.7,45.3,36.7z M53.3,24.6c0,0,0,0.1,0,0.1v27.1
	c0,0.7-0.6,1.3-1.3,1.3H26c-0.7,0-1.3-0.6-1.3-1.3v-9.1h-9.5c-2.4,0-4.4-2-4.4-4.3V17c0-0.4,0.2-0.8,0.5-1.1l9.3-6.8
	c0.5-0.3,1.1-0.3,1.6,0l9.3,6.8c0.3,0.3,0.5,0.7,0.5,1.1v2.4c0,0.7-0.6,1.3-1.3,1.3c-0.7,0-1.3-0.6-1.3-1.3v-1.7l-8-5.8l-8,5.8v20.8
	c0,0.8,0.8,1.6,1.8,1.6h9.5V24.7c0-0.7,0.6-1.3,1.3-1.3h10.6c-1.5-2.8-2.6-6.4-2.6-11c0-0.4,0.2-0.8,0.6-1.1
	C34.8,11.1,39.1,8,45.3,8c0,0,0,0,0,0c6.2,0,10.6,3.1,10.8,3.3c0.3,0.3,0.6,0.7,0.6,1.1C56.7,17.7,55.2,21.7,53.3,24.6L53.3,24.6z
	 M36.7,13.1c0.3,10.3,6.7,14.5,8.6,15.5c1.9-1,8.3-5.2,8.6-15.5c-1.3-0.7-4.5-2.4-8.6-2.4c0,0,0,0,0,0
	C41.2,10.7,37.9,12.3,36.7,13.1L36.7,13.1z M50.6,50.5V27.8c-2.2,2.2-4.3,3.2-4.7,3.4c-0.1,0.1-0.3,0.1-0.4,0.1c-0.1,0-0.1,0-0.2,0
	c-0.2,0-0.4-0.1-0.6-0.1c-0.6-0.3-3.6-1.8-6.3-5.2H27.3v24.5L50.6,50.5L50.6,50.5z M44.1,22.5c0.4,0,0.7-0.2,1-0.4l5.1-5.5
	c0.5-0.5,0.5-1.4-0.1-1.9s-1.4-0.5-1.9,0.1l-4.1,4.5l-1.4-1.6c-0.5-0.5-1.3-0.6-1.9-0.1c-0.5,0.5-0.6,1.3-0.1,1.9l2.4,2.6
	C43.3,22.4,43.7,22.5,44.1,22.5L44.1,22.5z"/>
</svg>
