<?xml version="1.0" encoding="utf-8"?>
<!-- Generator: Adobe Illustrator 28.0.0, SVG Export Plug-In . SVG Version: 6.00 Build 0)  -->
<svg version="1.1" id="Layer_1" xmlns="http://www.w3.org/2000/svg" xmlns:xlink="http://www.w3.org/1999/xlink" x="0px" y="0px"
	 viewBox="0 0 64 64" style="enable-background:new 0 0 64 64;" xml:space="preserve">
<style type="text/css">
	.st0{fill:#232F3E;}
</style>
<g>
	<path class="st0" d="M48.16,10.6667H15.84c-2.8533,0-5.1733,2.32-5.1733,5.1733V40.16c0,2.8535,2.32,5.1734,5.1733,5.1734h10.5067
		L24.28,50.6667H20c-0.7333,0-1.3333,0.6-1.3333,1.3333c0,0.7334,0.6,1.3334,1.3333,1.3334h24c0.7334,0,1.3334-0.6,1.3334-1.3334
		c0-0.7333-0.6-1.3333-1.3334-1.3333h-4.28l-2.0667-5.3333H48.16c2.8535,0,5.1734-2.3199,5.1734-5.1734V15.84
		C53.3334,12.9867,51.0134,10.6667,48.16,10.6667z M13.3334,15.84c0-1.3867,1.1266-2.5067,2.5067-2.5067h0.0067H48.16
		c1.3867,0,2.5067,1.1266,2.5067,2.5067v21.4933H13.3334V15.84z M27.1467,50.6667l2.02-5.2067
		c0.0133-0.04,0.02-0.0866,0.0333-0.1266h5.6067c0.0133,0.04,0.02,0.0866,0.0333,0.1266l2.02,5.2067H27.1467z M50.6667,40.16
		c0,1.3867-1.1267,2.5067-2.5067,2.5067H15.84c-1.3866,0-2.5067-1.1267-2.5067-2.5067V40h37.3333V40.16z"/>
	<path class="st0" d="M37.1267,23.56l-9.3333-3.48c-0.4867-0.18-1.04-0.06-1.4067,0.3067c-0.3666,0.3666-0.4866,0.92-0.3066,1.4066
		l3.48,9.3334v0.0066c0.18,0.4934,0.64,0.8334,1.16,0.8667c0.0266,0,0.06,0,0.0866,0c0.4934,0,0.9467-0.2733,1.18-0.7067
		l1.1867-2.2333l1.88,1.88c0.26,0.26,0.6,0.3933,0.94,0.3933c0.34,0,0.68-0.1333,0.94-0.3933c0.52-0.52,0.52-1.3667,0-1.8867
		l-1.88-1.88l2.2333-1.1866c0.4667-0.2467,0.74-0.74,0.7067-1.2667C37.9601,24.1933,37.6201,23.74,37.1267,23.56z M32.2134,25.6667
		c-0.2333,0.1266-0.4267,0.32-0.5533,0.5533l-0.64,1.2067l-1.4267-3.82L33.41,25.032L32.2134,25.6667z"/>
</g>
</svg>
