<?xml version="1.0" encoding="utf-8"?>
<!-- Generator: Adobe Illustrator 28.0.0, SVG Export Plug-In . SVG Version: 6.00 Build 0)  -->
<svg version="1.1" id="Layer_1" xmlns="http://www.w3.org/2000/svg" xmlns:xlink="http://www.w3.org/1999/xlink" x="0px" y="0px"
	 viewBox="0 0 64 64" style="enable-background:new 0 0 64 64;" xml:space="preserve">
<style type="text/css">
	.st0{fill:#232F3E;}
</style>
<path class="st0" d="M45.9602,21.02c1.6533-1.3467,2.7067-3.3933,2.7067-5.6867C48.6669,11.2867,45.3802,8,41.3335,8
	c-4.0466,0-7.3333,3.2867-7.3333,7.3333c0,2.2934,1.06,4.34,2.7067,5.6867c-3.1267,1.12-5.7334,3.3267-7.36,6.1733
	c-1.3667-1.2666-2.9667-2.24-4.7-2.8533c1.64-1.3467,2.6866-3.3867,2.6866-5.6667c0-4.0466-3.2866-7.3333-7.3333-7.3333
	s-7.3333,3.2867-7.3333,7.3333c0,2.2867,1.0533,4.3334,2.7066,5.68c-5.3333,1.9067-9.1733,7-9.1733,12.9867v4.88
	c0,0.7333,0.6,1.3333,1.3333,1.3333s1.3333-0.6,1.3333-1.3333v-4.88c0-6.14,4.9933-11.1333,11.1333-11.1333
	c3.1467,0,6.08,1.32,8.1867,3.62c-0.42,1.32-0.6534,2.72-0.6534,4.18v4.66c0,0.7333,0.6,1.3333,1.3334,1.3333
	c0.7333,0,1.3333-0.6,1.3333-1.3333v-4.66c0-6.14,4.9933-11.1334,11.1333-11.1334s11.1334,4.9934,11.1334,11.1334v7.9866
	c0,0.7334,0.6,1.3334,1.3333,1.3334c0.7333,0,1.3333-0.6,1.3333-1.3334v-7.9866c0-5.9867-3.8333-11.0734-9.1733-12.98V21.02z
	 M20.0002,14c2.5733,0,4.6667,2.0933,4.6667,4.6667c0,2.5733-2.0934,4.6666-4.6667,4.6666s-4.6667-2.0933-4.6667-4.6666
	C15.3335,16.0933,17.4269,14,20.0002,14z M41.3335,10.6667c2.5734,0,4.6667,2.0933,4.6667,4.6666
	c0,2.5734-2.0933,4.6667-4.6667,4.6667c-2.5733,0-4.6666-2.0933-4.6666-4.6667C36.6669,12.76,38.7602,10.6667,41.3335,10.6667z
	 M46.0002,36v8c0,0.7333-0.6,1.3333-1.3333,1.3333c-0.7334,0-1.3334-0.6-1.3334-1.3333v-4.7333l-15.26,15.4666
	c-0.2533,0.2534-0.5933,0.4-0.9466,0.4c-0.36,0-0.7-0.1466-0.9467-0.4l-7.0933-7.22l-8.7867,8.1934
	c-0.2533,0.24-0.58,0.36-0.9067,0.36c-0.36,0-0.7133-0.14-0.9733-0.4267c-0.5-0.54-0.4733-1.38,0.0667-1.8867l9.7333-9.0733
	c0.5267-0.4933,1.3533-0.4733,1.86,0.04l7.0533,7.18l14.3667-14.56h-4.8267c-0.7333,0-1.3333-0.6-1.3333-1.3333
	c0-0.7334,0.6-1.3334,1.3333-1.3334h8c0.7334,0,1.3334,0.6,1.3334,1.3334L46.0002,36z"/>
</svg>
