<?xml version="1.0" encoding="utf-8"?>
<!-- Generator: Adobe Illustrator 28.0.0, SVG Export Plug-In . SVG Version: 6.00 Build 0)  -->
<svg version="1.1" id="Layer_1" xmlns="http://www.w3.org/2000/svg" xmlns:xlink="http://www.w3.org/1999/xlink" x="0px" y="0px"
	 viewBox="0 0 64 64" style="enable-background:new 0 0 64 64;" xml:space="preserve">
<style type="text/css">
	.st0{fill:#232F3E;}
</style>
<g>
	<path class="st0" d="M45.9999,53.3333H33.3332V48c0,0,0-0.02,0-0.0333c4.7667-0.2867,9.3067-2.16,12.8933-5.3534
		c0.5467-0.4866,0.6-1.3333,0.1067-1.88c-0.4933-0.5533-1.3333-0.6-1.88-0.1066c-3.42,3.0466-7.8267,4.72-12.4133,4.72
		c-10.2934,0-18.6667-8.3734-18.6667-18.6667c0-7.4067,4.3799-14.12,11.1667-17.1c0.6733-0.2933,0.98-1.08,0.6866-1.76
		c-0.2933-0.6733-1.08-0.98-1.76-0.6867c-7.7533,3.4067-12.76,11.0734-12.76,19.54c0,11.3067,8.84,20.58,19.9667,21.2867
		c0,0.0133,0,0.0267,0,0.04v5.3333H17.9999c-0.7334,0-1.3334,0.6-1.3334,1.3334c0,0.7333,0.6,1.3333,1.3334,1.3333h28
		c0.7333,0,1.3333-0.6,1.3333-1.3333C47.3332,53.9333,46.7332,53.3333,45.9999,53.3333z"/>
	<path class="st0" d="M16,26.6667c0,8.82,7.18,16,16,16s16-7.18,16-16s-7.18-16-16-16S16,17.8467,16,26.6667z M21.7,35.12
		c-1.8933-2.3-3.0333-5.2466-3.0333-8.4533c0-1.2867,0.1933-2.52,0.5333-3.7c1.4067,0.36,2.9133-0.0933,4.1867-0.48
		c1.5466-0.4667,2.52-0.72,3.0733-0.2067c0.3267,0.3066,0.3533,0.5467-0.5933,2.24c-0.7534,1.3534-1.6934,3.04-1.3067,5.0134
		C24.9933,31.7534,23.6733,34.2134,21.7,35.12z M36.5133,14.14c5.1267,1.86,8.8134,6.7667,8.8134,12.5267h0.0066
		c0,2.3933-0.64,4.64-1.7533,6.58c-0.72-0.4333-1.6-0.8467-2.46-1.2533c-0.9733-0.46-1.98-0.9334-2.58-1.3467
		c-0.4133-0.2867-0.84-0.5867-1.06-0.9133c-0.3867-0.5667-0.3067-1.44-0.2133-2.4467c0.08-0.9,0.18-1.9267-0.0734-2.9467
		c-0.2533-1.04-0.82-1.8867-1.32-2.64c-0.2466-0.3666-0.4733-0.7133-0.66-1.06C34.1067,18.5334,34.7133,15.7,36.5133,14.14z
		 M31.9933,13.3267L32,13.3334c0.5333,0,1.06,0.04,1.5733,0.1c-1.7466,2.4066-2.1266,5.76-0.7133,8.4466
		c0.2467,0.4667,0.5267,0.8867,0.7933,1.2934c0.4134,0.6266,0.8067,1.2133,0.9467,1.8c0.1467,0.5866,0.08,1.3066,0.0067,2.0666
		c-0.12,1.3267-0.26,2.8267,0.66,4.1867c0.4933,0.7267,1.1866,1.2133,1.74,1.6c0.7866,0.5533,1.9,1.0733,2.9733,1.58
		c0.72,0.34,1.46,0.6867,2.04,1.0133c-2.4467,2.8-6.0333,4.5734-10.0267,4.5734c-3.1466,0-6.04-1.1-8.32-2.9334
		c2.5534-1.66,4.1068-4.96,3.5-8.0466c-0.2-1.0134,0.3934-2.0734,1.02-3.2c0.8134-1.46,2.04-3.66,0.08-5.4867
		c-1.7133-1.5933-3.9066-0.9333-5.6666-0.3933c-1,0.3066-1.7867,0.52-2.3867,0.4933C22.46,16.2134,26.9,13.3267,31.9933,13.3267z"/>
</g>
</svg>
