<?xml version="1.0" encoding="utf-8"?>
<!-- Generator: Adobe Illustrator 28.0.0, SVG Export Plug-In . SVG Version: 6.00 Build 0)  -->
<svg version="1.1" id="Layer_1" xmlns="http://www.w3.org/2000/svg" xmlns:xlink="http://www.w3.org/1999/xlink" x="0px" y="0px"
	 viewBox="0 0 64 64" style="enable-background:new 0 0 64 64;" xml:space="preserve">
<style type="text/css">
	.st0{fill:#232F3E;}
</style>
<path class="st0" d="M59.2465,41.52c-0.2666-0.6866-1.0333-1.0333-1.7266-0.7666c-0.8667,0.3333-1.62,0.6-2.32,0.82
	c-1.4334,0.4666-2.8134,0.82-4.14,1.0933c0.0666-0.12,0.14-0.2267,0.2-0.3467l6.5866-12.3666
	c0.22-0.4134,0.2067-0.9134-0.0333-1.3134c-0.24-0.4-0.6733-0.6466-1.14-0.6466h-3.3333v-4.6667c0-0.7333-0.6-1.3333-1.3334-1.3333
	H41.3399v-6.6667c0-0.7333-0.6-1.3333-1.3334-1.3333h-12c-0.7333,0-1.3333,0.6-1.3333,1.3333V30.66h-1.2l-1.0467-1.96
	c-0.2333-0.4333-0.6866-0.7066-1.1733-0.7066h-0.1667l-1.96-8.9534c-0.1333-0.6133-0.6733-1.0466-1.3-1.0466h-2.4733v-4
	c0-0.7334-0.6-1.3334-1.3333-1.3334c-0.7334,0-1.3334,0.6-1.3334,1.3334v4h-2.6666c-0.7334,0-1.3334,0.6-1.3334,1.3333v8.6667
	H9.3532c-0.7333,0-1.3333,0.6-1.3333,1.3333v6.3467c0,2.1333,0.5867,4.2,1.6733,6.0066c-1.3067,0.2867-2.62,0.6267-3.96,1.04
	c-0.7067,0.2134-1.1,0.96-0.8867,1.6667c0.2133,0.7067,0.96,1.1,1.6667,0.8867c2.5133-0.7667,4.9267-1.2934,7.3667-1.6134
	c6.7666-0.8866,12.4,0.1,17.84,1.0534c3.8733,0.6733,7.82,1.3666,12.1466,1.3666c3.7067,0,7.7-0.5066,12.1734-1.96
	c0.74-0.2333,1.5466-0.52,2.4666-0.8733c0.6867-0.2667,1.0267-1.04,0.7667-1.7267H59.2465z M50.6665,28h-3.24
	c-0.4933,0-0.9466,0.2734-1.1733,0.7067l-1.0467,1.96h-3.8666v-6h9.3333V28H50.6665z M29.3332,16.6667h9.3333V22h-9.3333V16.6667z
	 M29.3332,24.6667h9.3333v6h-9.3333V24.6667z M13.3332,20.6667h5.4L20.3399,28h-7.0067V20.6667z M13.5132,41.02
	c-0.3267,0.04-0.6467,0.1-0.9733,0.1467c-1.2134-1.5733-1.8734-3.4933-1.8734-5.4867v-5.0133h11.7734l0.6733,1.26
	c0.4667,0.8667,1.3667,1.4067,2.3533,1.4067h19.7334c0.9866,0,1.8866-0.54,2.3533-1.4067l0.6733-1.26h6.22l-5.5666,10.46
	c-0.64,1.34-2.0134,2.2067-3.5,2.2067h-3.2467c-0.0933,0-0.1867,0.0133-0.28,0.0333c-3.3133-0.1667-6.4667-0.7133-9.7-1.28
	C26.5132,41.1,20.6799,40.0867,13.5132,41.02z"/>
</svg>
