<?xml version="1.0" encoding="utf-8"?>
<!-- Generator: Adobe Illustrator 28.0.0, SVG Export Plug-In . SVG Version: 6.00 Build 0)  -->
<svg version="1.1" id="Layer_1" xmlns="http://www.w3.org/2000/svg" xmlns:xlink="http://www.w3.org/1999/xlink" x="0px" y="0px"
	 viewBox="0 0 64 64" style="enable-background:new 0 0 64 64;" xml:space="preserve">
<style type="text/css">
	.st0{fill:#232F3E;}
</style>
<path class="st0" d="M59.7999,37.96l-6.6666-10.6667c0,0-0.0067-0.0066-0.0134-0.0133c-0.0533-0.0867-0.12-0.1667-0.1933-0.2333
	c-0.0133-0.0134-0.0333-0.0267-0.0533-0.04c-0.06-0.0534-0.12-0.1-0.1934-0.14c-0.0266-0.0134-0.0533-0.0334-0.08-0.0467
	c-0.0666-0.0333-0.1333-0.06-0.2066-0.08c-0.0267-0.0067-0.0534-0.02-0.08-0.0267c-0.1-0.0266-0.2-0.04-0.3067-0.04H11.9999
	c-0.1066,0-0.2133,0.0134-0.3133,0.04c-0.0133,0-0.0267,0.0067-0.04,0.0134c-0.0933,0.0266-0.18,0.06-0.2667,0.1066l-0.0333,0.02
	c-0.2067,0.12-0.38,0.2867-0.5,0.4934l-6.6467,10.62c-0.26,0.4133-0.2733,0.9266-0.0333,1.3533
	c0.24,0.4267,0.68,0.6867,1.1667,0.6867h5.3333v12c0,0.7333,0.6,1.3333,1.3333,1.3333h40c0.7334,0,1.3334-0.6,1.3334-1.3333v-12
	h5.3333c0.4867,0,0.9333-0.26,1.1667-0.6867c0.2333-0.4267,0.22-0.94-0.0334-1.3533V37.96z M12.7466,29.3333h20.8467l-5.0067,8
	H7.7399L12.7466,29.3333z M13.3333,40h15.9933c0.46,0,0.8867-0.2333,1.1333-0.6267l4.2134-6.7266v18.02h-21.34V40z M50.6666,50.6667
	H37.3333v-18.02l4.2,6.7266C41.7799,39.76,42.2066,40,42.6666,40h8V50.6667z M43.4066,37.3333l-5-8h12.8533l5,8H43.4066z"/>
<path class="st0" d="M17.3201,18.6667c0.0666,0,0.1266,0.0733,0.1533,0.12c0.08,0.1266,0.1267,0.3333,0.0333,0.5466l-0.1133,0.2534
	c-0.4533,1.0066-0.3667,2.1533,0.22,3.0733c0.5333,0.8333,1.42,1.34,2.3733,1.3467h0.0134c0.7266,0,1.3266-0.5867,1.3333-1.32
	c0.0067-0.7334-0.58-1.34-1.32-1.3467c-0.0667,0-0.1267-0.0733-0.1533-0.12c-0.08-0.1267-0.1267-0.3333-0.0334-0.5467l0.1134-0.2533
	c0.4533-1.0067,0.3666-2.1533-0.22-3.0733c-0.5334-0.8334-1.42-1.34-2.3734-1.3467c-0.7666,0-1.34,0.58-1.3466,1.32
	C15.9934,18.0533,16.5801,18.66,17.3201,18.6667z"/>
<path class="st0" d="M44.0132,24c0.0733,0,0.1466,0,0.22-0.02c0.6466-0.1066,1.1066-0.6666,1.1133-1.3
	c0.1533-0.0866,0.4867-0.1733,0.8667-0.0866l0.2866,0.0666c1.2267,0.2934,2.56-0.0066,3.3867-0.78
	c0.6067-0.5666,0.8867-1.3333,0.7533-2.1066c-0.12-0.7267-0.8133-1.2134-1.5333-1.0934c-0.6467,0.1067-1.1067,0.6667-1.1133,1.3
	c-0.1534,0.0867-0.4867,0.18-0.8667,0.0867L46.8398,20c-1.2266-0.3-2.56,0.0067-3.3866,0.78
	c-0.6134,0.5667-0.8867,1.3334-0.7534,2.1067C42.8065,23.54,43.3732,24,44.0132,24z"/>
<path class="st0" d="M36,13.3334c0,0,0.0666,0,0.0933,0c1.1067-0.08,2.06-0.7,2.56-1.6667c0.48-0.9266,0.4333-2.0133-0.1133-2.9133
	L38.4,8.5201c-0.02-0.0333-0.0867-0.1467-0.0134-0.3C38.42,8.1601,38.52,8.0134,38.76,7.9934
	c0.7333-0.0533,1.2866-0.6933,1.2333-1.4267C39.94,5.8334,39.3066,5.28,38.5666,5.3334c-1.1066,0.08-2.06,0.7-2.56,1.6667
	c-0.48,0.9267-0.44,2.02,0.1134,2.9133l0.14,0.2333c0.02,0.0334,0.0933,0.1467,0.0133,0.3c-0.0333,0.06-0.1333,0.2067-0.3733,0.2267
	c-0.7334,0.0533-1.2867,0.6933-1.2334,1.4267c0.0534,0.7,0.6334,1.24,1.3267,1.24L36,13.3334z"/>
<path class="st0" d="M26.7,19.9667c0.7364,0,1.3334-0.5969,1.3334-1.3333S27.4364,17.3,26.7,17.3
	c-0.7363,0-1.3333,0.597-1.3333,1.3334S25.9637,19.9667,26.7,19.9667z"/>
<path class="st0" d="M17.3665,13.3001c0.7364,0,1.3334-0.597,1.3334-1.3333c0-0.7364-0.597-1.3334-1.3334-1.3334
	c-0.7363,0-1.3333,0.597-1.3333,1.3334C16.0332,12.7031,16.6302,13.3001,17.3665,13.3001z"/>
<path class="st0" d="M33.3332,24c0.34,0,0.68-0.1333,0.94-0.3933l2.6667-2.6667c0.52-0.52,0.52-1.3667,0-1.8867
	c-0.52-0.52-1.3667-0.52-1.8867,0L32.3866,21.72c-0.52,0.52-0.52,1.3667,0,1.8867c0.26,0.26,0.6,0.3933,0.94,0.3933H33.3332z"/>
<path class="st0" d="M12.0001,23.9999c0.7364,0,1.3333-0.5969,1.3333-1.3333c0-0.7364-0.5969-1.3333-1.3333-1.3333
	c-0.7364,0-1.3334,0.5969-1.3334,1.3333C10.6667,23.403,11.2637,23.9999,12.0001,23.9999z"/>
<path class="st0" d="M42.7003,15.9665c0.7364,0,1.3333-0.597,1.3333-1.3334c0-0.7363-0.5969-1.3333-1.3333-1.3333
	c-0.7364,0-1.3334,0.597-1.3334,1.3333C41.3669,15.3695,41.9639,15.9665,42.7003,15.9665z"/>
<path class="st0" d="M27.9994,13.3332c-0.34,0-0.68-0.1333-0.94-0.3933l-2.6667-2.6667c-0.52-0.5199-0.52-1.3666,0-1.8866
	c0.52-0.52,1.3667-0.52,1.8867,0l2.6666,2.6666c0.52,0.52,0.52,1.3667,0,1.8867c-0.26,0.26-0.6,0.3933-0.94,0.3933H27.9994z"/>
</svg>
