<?xml version="1.0" encoding="utf-8"?>
<!-- Generator: Adobe Illustrator 28.0.0, SVG Export Plug-In . SVG Version: 6.00 Build 0)  -->
<svg version="1.1" id="Layer_1" xmlns="http://www.w3.org/2000/svg" xmlns:xlink="http://www.w3.org/1999/xlink" x="0px" y="0px"
	 viewBox="0 0 64 64" style="enable-background:new 0 0 64 64;" xml:space="preserve">
<style type="text/css">
	.st0{fill:#232F3E;}
</style>
<path class="st0" d="M57.6328,21.2665L33.4595,11.1932c-0.98-0.4067-2.1-0.4067-3.08,0L6.2128,21.2665
	c-0.7467,0.3133-1.2267,1.04-1.2267,1.8467c0,0.8066,0.48,1.5333,1.2333,1.8466l9.64,4.0134l0.0133,2.9066
	c0,3.7467-0.9533,6.02-1.9067,7.3667c-1.5066-0.6733-3.3333-0.4133-4.5866,0.7933l-4.86,3.8867c-0.2933,0.24-0.48,0.5867-0.5,0.9667
	c-0.02,0.38,0.12,0.7466,0.3867,1.0133l5,5c0.2533,0.2533,0.5867,0.3933,0.94,0.3933c0.0267,0,0.0467,0,0.0734,0
	c0.38-0.02,0.7333-0.2,0.9666-0.5l3.8867-4.8599c0.7533-0.78,1.1667-1.8067,1.1667-2.8934c0-0.7067-0.1734-1.3867-0.5067-1.9867
	c1.2733-1.6733,2.6-4.5266,2.6-9.1866v-1.7867l11.8533,4.94c0.4867,0.2067,1.0134,0.3067,1.54,0.3067
	c0.5267,0,1.0467-0.1,1.54-0.3067l11.8734-4.9467v11.8334c0,1.5733-0.8134,2.9866-2.1334,3.6866
	c-2.4466,1.3-6.3866,2.8467-11.2733,2.8467c-2.72,0-6.8867-0.4933-11.3133-2.86c-0.6467-0.3467-1.46-0.1-1.8067,0.5467
	c-0.3467,0.6466-0.1,1.46,0.5467,1.8067c4.9066,2.6266,9.5466,3.1799,12.5666,3.1799c4.3067,0,8.64-1.0933,12.5267-3.16
	c2.1867-1.16,3.5467-3.48,3.5467-6.04V28.9732l9.6333-4.0134c0.7467-0.3133,1.2333-1.0333,1.2333-1.8466
	C58.8661,22.2998,58.3861,21.5798,57.6328,21.2665z M13.3261,44.1132c-0.0333,0.0333-0.0666,0.0733-0.1,0.1133l-2.9933,3.7467
	l-2.8933-2.8934l3.7466-2.9933c0.04-0.0333,0.0734-0.0667,0.1134-0.1c0.5866-0.5867,1.5466-0.5867,2.1333,0
	c0.2867,0.2867,0.44,0.66,0.44,1.0667c0,0.4066-0.16,0.78-0.44,1.0666L13.3261,44.1132z M32.4328,32.5665
	c-0.3267,0.14-0.6933,0.14-1.0267,0l-11.04-4.6l12.0667-5.0267c0.68-0.28,1-1.0666,0.72-1.7466c-0.28-0.68-1.06-1-1.7467-0.72
	l-14.32,5.9666c-0.06,0.0267-0.1133,0.06-0.1666,0.0867l-8.2067-3.42l22.6933-9.4533c0.3334-0.14,0.6934-0.14,1.0267,0
	l22.6933,9.4533l-22.6933,9.4533V32.5665z"/>
</svg>
