<?xml version="1.0" encoding="utf-8"?>
<!-- Generator: Adobe Illustrator 28.0.0, SVG Export Plug-In . SVG Version: 6.00 Build 0)  -->
<svg version="1.1" id="Layer_1" xmlns="http://www.w3.org/2000/svg" xmlns:xlink="http://www.w3.org/1999/xlink" x="0px" y="0px"
	 viewBox="0 0 64 64" style="enable-background:new 0 0 64 64;" xml:space="preserve">
<style type="text/css">
	.st0{fill:#232F3E;}
</style>
<path class="st0" d="M58.6667,35.94c0,0,0-0.0333,0-0.0533c0-0.0467-0.0067-0.0934-0.0134-0.14c0-0.04-0.0133-0.0867-0.02-0.1267
	c-0.0066-0.04-0.02-0.08-0.0333-0.12c-0.0133-0.0467-0.0333-0.0933-0.0533-0.1333c-0.0067-0.0134-0.0134-0.0334-0.02-0.0467
	l-4.1934-8c-0.2266-0.44-0.6866-0.7133-1.18-0.7133H32.2c-0.4933,0-0.9533,0.2733-1.18,0.7133l-4.1933,8
	c0,0-0.0134,0.0333-0.02,0.0467c-0.02,0.0466-0.04,0.0866-0.0534,0.1333c-0.0133,0.04-0.0266,0.08-0.0333,0.12
	c-0.0133,0.04-0.02,0.0867-0.02,0.1267c-0.0067,0.0466-0.0133,0.0933-0.0133,0.14c0,0.02,0,0.0333,0,0.0533
	c0,2.04,1.08,3.82,2.6666,4.7133v2.0134h-16.02V16h24v6.6667c0,0.7333,0.6,1.3333,1.3334,1.3333C39.4,24,40,23.4,40,22.6667V16
	h1.3333c0.7334,0,1.3334-0.6,1.3334-1.3333V9.3333C42.6667,8.6,42.0667,8,41.3333,8h-32C8.6,8,8,8.6,8,9.3333v5.3334
	C8,15.4,8.6,16,9.3333,16h1.3334v28c0,0.7333,0.6,1.3333,1.3333,1.3333h17.3333v9.3334c0,0.7333,0.6,1.3333,1.3334,1.3333h24
	C55.4,56,56,55.4,56,54.6667V40.6533C57.5867,39.76,58.6667,37.98,58.6667,35.94z M10.6667,10.6667H40v2.6666H10.6667V10.6667z
	 M55.9733,36.22c-0.1266,1.34-1.1066,2.3867-2.3066,2.3867c-1.3067,0-2.3334-1.1467-2.3334-2.6067c0-0.0133,0-0.0267,0-0.04
	c0-0.0467-0.0066-0.0933-0.0133-0.14c0-0.0467-0.0133-0.0867-0.02-0.1333c0-0.0134,0-0.0267-0.0067-0.04L49.54,29.2733h2.8
	l3.64,6.9467H55.9733z M38.56,29.2733h2.7733V35.94c0,1.4733-1.0466,2.6667-2.3333,2.6667s-2.26-1.0734-2.32-2.4734L38.56,29.2733z
	 M44,29.2733h2.7667l1.8866,6.8667c-0.06,1.3933-1.0533,2.4667-2.32,2.4667C45.0667,38.6067,44,37.4133,44,35.94V29.2733z
	 M33,29.2733h2.8l-1.7467,6.3734c0,0,0,0.0266-0.0066,0.04c-0.0134,0.0466-0.02,0.0866-0.02,0.1333s-0.0134,0.0933-0.0134,0.1333
	c0,0.0134,0,0.0267,0,0.04c0,1.46-1.0266,2.6067-2.3333,2.6067c-1.2,0-2.1867-1.0467-2.3067-2.3867l3.64-6.9466L33,29.2733z
	 M45.3333,53.3333H40V46h5.3333V53.3333z M48,53.3333v-8.6666c0-0.7334-0.6-1.3334-1.3333-1.3334h-8
	c-0.7334,0-1.3334,0.6-1.3334,1.3334v8.6666H32v-12.08c1.3133-0.0933,2.4933-0.72,3.3333-1.68c0.9134,1.04,2.22,1.7,3.6667,1.7
	s2.7533-0.6666,3.6667-1.72c0.9133,1.0534,2.22,1.72,3.6666,1.72c1.4467,0,2.7534-0.66,3.6667-1.7
	c0.84,0.96,2.02,1.5934,3.3333,1.68v12.08H48z"/>
<path class="st0" d="M18.6667,28.0001c0-0.7334-0.6-1.3334-1.3334-1.3334c-0.7333,0-1.3333,0.6-1.3333,1.3334v2.6666
	c0,0.7334,0.6,1.3334,1.3333,1.3334c0.7334,0,1.3334-0.6,1.3334-1.3334V28.0001z"/>
<path class="st0" d="M24.0002,28.0001c0-0.7334-0.6-1.3334-1.3334-1.3334c-0.7333,0-1.3333,0.6-1.3333,1.3334v2.6666
	c0,0.7334,0.6,1.3334,1.3333,1.3334c0.7334,0,1.3334-0.6,1.3334-1.3334V28.0001z"/>
<path class="st0" d="M18.6667,20.0001c0-0.7334-0.6-1.3334-1.3334-1.3334c-0.7333,0-1.3333,0.6-1.3333,1.3334v2.6666
	c0,0.7334,0.6,1.3334,1.3333,1.3334c0.7334,0,1.3334-0.6,1.3334-1.3334V20.0001z"/>
<path class="st0" d="M24.0002,20.0001c0-0.7334-0.6-1.3334-1.3334-1.3334c-0.7333,0-1.3333,0.6-1.3333,1.3334v2.6666
	c0,0.7334,0.6,1.3334,1.3333,1.3334c0.7334,0,1.3334-0.6,1.3334-1.3334V20.0001z"/>
<path class="st0" d="M26.6665,20.0001v1.38c0,0.7333,0.6,1.3333,1.3333,1.3333c0.7334,0,1.3334-0.6,1.3334-1.3333v-1.38
	c0-0.7334-0.6-1.3334-1.3334-1.3334C27.2665,18.6667,26.6665,19.2667,26.6665,20.0001z"/>
<path class="st0" d="M32,20.0001v1.38c0,0.7333,0.6,1.3333,1.3333,1.3333c0.7334,0,1.3334-0.6,1.3334-1.3333v-1.38
	c0-0.7334-0.6-1.3334-1.3334-1.3334C32.6,18.6667,32,19.2667,32,20.0001z"/>
<path class="st0" d="M17.3333,34.6667c-0.7333,0-1.3333,0.6-1.3333,1.3334v2.6666c0,0.7334,0.6,1.3334,1.3333,1.3334
	c0.7334,0,1.3334-0.6,1.3334-1.3334v-2.6666C18.6667,35.2667,18.0667,34.6667,17.3333,34.6667z"/>
<path class="st0" d="M22.6668,34.6667c-0.7333,0-1.3333,0.6-1.3333,1.3334v2.6666c0,0.7334,0.6,1.3334,1.3333,1.3334
	c0.7334,0,1.3334-0.6,1.3334-1.3334v-2.6666C24.0002,35.2667,23.4002,34.6667,22.6668,34.6667z"/>
</svg>
