<?xml version="1.0" encoding="UTF-8"?><svg id="Layer_1" xmlns="http://www.w3.org/2000/svg" xmlns:xlink="http://www.w3.org/1999/xlink" viewBox="0 0 24 24"><defs><style>.cls-1{mask:url(#mask);}.cls-2{fill:#49850e;}.cls-3{fill:#fff;}</style><mask id="mask" x="0" y="0" width="24" height="24" maskUnits="userSpaceOnUse"><g id="mask-2"><rect id="path-1" class="cls-3" width="24" height="24"/></g></mask></defs><g id="Page-1"><g id="star"><g class="cls-1"><path id="Shape" class="cls-2" d="M12,22.48c-1.47,0-2.83-.27-4.1-.83-1.27-.55-2.37-1.3-3.31-2.24-.94-.94-1.69-2.05-2.24-3.31-.55-1.27-.83-2.63-.83-4.1s.28-2.83.83-4.1c.55-1.27,1.3-2.37,2.24-3.31.94-.94,2.05-1.69,3.31-2.24,1.27-.55,2.63-.83,4.1-.83s2.83.27,4.1.83c1.27.55,2.37,1.3,3.31,2.24.94.94,1.69,2.05,2.24,3.31.55,1.27.82,2.63.82,4.1s-.27,2.83-.82,4.1c-.55,1.27-1.3,2.37-2.24,3.31-.94.94-2.05,1.69-3.31,2.24-1.27.55-2.63.83-4.1.83Z"/></g></g></g><path class="cls-3" d="M12,15.21l2.32,1.78c.28.2.56.21.83.02.27-.18.35-.43.25-.75l-.9-2.95,2.28-1.65c.28-.18.37-.43.27-.74-.1-.31-.32-.46-.65-.46h-2.8l-.98-3.13c-.1-.32-.31-.48-.62-.48s-.52.16-.62.48l-.97,3.13h-2.8c-.32,0-.53.15-.64.46-.11.31-.02.55.26.74l2.28,1.65-.9,2.95c-.1.32-.02.57.25.75.27.18.54.17.82-.02l2.32-1.78Z"/></svg>