<?xml version="1.0" encoding="utf-8"?>
<!-- Generator: Adobe Illustrator 28.0.0, SVG Export Plug-In . SVG Version: 6.00 Build 0)  -->
<svg version="1.1" id="Layer_1" xmlns="http://www.w3.org/2000/svg" xmlns:xlink="http://www.w3.org/1999/xlink" x="0px" y="0px"
	 viewBox="0 0 64 64" style="enable-background:new 0 0 64 64;" xml:space="preserve">
<style type="text/css">
	.st0{fill:#232F3E;}
</style>
<path class="st0" d="M19.4267,29.1734L31.3934,35.26c0.0533,0.0267,0.1133,0.04,0.1666,0.06c0.0334,0.0134,0.0667,0.0267,0.1,0.0401
	c0.1134,0.0266,0.22,0.0466,0.3334,0.0466c0.1133,0,0.22-0.02,0.3333-0.0466c0.0333-0.0067,0.0667-0.0267,0.1-0.0401
	c0.0533-0.02,0.1133-0.0333,0.1667-0.06L44.56,29.1734c0.5-0.2534,0.7734-0.7867,0.72-1.3133c0-0.0267,0.0067-0.0534,0.0067-0.0801
	V16.42c0,0,0-0.0533-0.0067-0.08c0-0.04,0-0.08,0-0.1266c0-0.0467,0-0.0867,0-0.1334c0-0.04-0.0133-0.08-0.02-0.1266
	c-0.0066-0.0467-0.0133-0.0867-0.0266-0.1267C45.22,15.78,45.2,15.74,45.1867,15.7c-0.0133-0.0333-0.02-0.06-0.0333-0.0933
	c0-0.0067-0.0067-0.0133-0.0134-0.02c-0.02-0.04-0.0533-0.08-0.08-0.12c-0.02-0.0333-0.0466-0.0667-0.0666-0.1
	c-0.0267-0.0333-0.0534-0.06-0.0867-0.0867c-0.0333-0.0333-0.0667-0.0666-0.1-0.1c-0.0267-0.02-0.06-0.04-0.0867-0.06
	c-0.0466-0.0333-0.0866-0.06-0.1333-0.0866c-0.0067,0-0.0133-0.0067-0.02-0.0134L32.6,8.9334c0,0-0.0533-0.02-0.08-0.0333
	c-0.0466-0.02-0.0933-0.04-0.14-0.0533c-0.04-0.0133-0.08-0.02-0.1266-0.0267c-0.04-0.0067-0.0867-0.02-0.1267-0.02
	C32.08,8.8,32.04,8.8,32,8.8s-0.0866,0-0.1266,0c-0.04,0-0.0867,0.0133-0.1267,0.02c-0.04,0.0067-0.0867,0.0133-0.1267,0.0267
	c-0.0466,0.0133-0.0933,0.0333-0.1333,0.0533C31.46,8.9134,31.4267,8.92,31.4,8.9334L19.4334,15.02c0,0-0.0334,0.02-0.0534,0.0334
	c-0.0133,0.0066-0.0266,0.0133-0.04,0.02c-0.02,0.0133-0.0333,0.0266-0.0466,0.04c-0.06,0.04-0.12,0.0866-0.1734,0.14
	c-0.02,0.02-0.0466,0.04-0.0666,0.0666c-0.0667,0.0734-0.1267,0.1534-0.1734,0.24c-0.0466,0.0934-0.0866,0.1934-0.1133,0.2867
	c-0.0067,0.0267-0.0133,0.0533-0.02,0.0867c-0.0133,0.0733-0.0267,0.1533-0.0267,0.2333c0,0.02-0.0066,0.0333-0.0066,0.0533v11.7667
	c0,0.5,0.28,0.96,0.7266,1.1867H19.4267z M26.2667,14.5467l8.9267,4.64l-3.2,1.6267l-9.0267-4.5867l3.2933-1.6733L26.2667,14.5467z
	 M31.9934,11.6334L41.02,16.22l-2.9,1.4734l-8.9266-4.64L32,11.6267L31.9934,11.6334z M33.3267,23.1267l9.3-4.7267v8.7734
	l-9.3,4.7266V23.1267z M21.36,18.4l9.3,4.7267V31.9l-9.3-4.7266V18.4z"/>
<path class="st0" d="M55.0666,48.5334C54.8066,48.1867,48.5732,40,40.6666,40h-12c-3.7734,0-4.56,2.16-4.6534,3.6667l-8.7-4.8333
	c0,0-0.0333-0.0134-0.0533-0.02c-0.0133-0.0067-0.0267-0.02-0.0467-0.0267c-1.2533-0.5667-2.7333-0.62-3.96-0.1267
	c-1.0333,0.4134-1.8266,1.18-2.2333,2.1667c-1,2.44-0.0333,5.08,2.2933,6.32h0.0067l11.28,6.64c0.6733,0.44,1.8933,0.84,2.66,0.88
	c0.02,0,0.0467,0,0.0667,0h10.6333c2.6667,0.14,4.4933,0.7067,5.9133,1.8267c0.2334,0.18,0.42,0.42,0.5534,0.6866l0.3733,0.7534
	c0.16,0.32,0.4467,0.5666,0.7867,0.6733c0.1333,0.04,0.2666,0.06,0.4066,0.06c0.2134,0,0.4334-0.0533,0.6267-0.1533
	c4.3267-2.3,7.9333-5.1867,10.42-8.3534c0.3733-0.4733,0.38-1.14,0.02-1.6266H55.0666z M44.5399,55.5067
	c-0.2733-0.42-0.62-0.7933-1.0133-1.1067c-2.4134-1.9133-5.26-2.2866-7.4667-2.4c-0.02,0-0.0467,0-0.0667,0H25.3666
	c-0.3134-0.0266-1.0467-0.28-1.3667-0.48l-11.3333-6.6666c0,0-0.0267-0.0067-0.0334-0.0134c-0.0133-0.0066-0.02-0.0133-0.0333-0.02
	c-1.3267-0.68-1.5067-2.0133-1.1133-2.9733c0.1333-0.32,0.3866-0.56,0.7533-0.7067c0.5533-0.22,1.26-0.1933,1.8533,0.0734
	L26.0199,47.84c0.2,0.1134,0.42,0.1667,0.6467,0.1667h1.3333c0.06,0,0.12-0.0133,0.18-0.02c0.1533,0.0067,0.3,0.02,0.4667,0.02
	l5.72,0.0867c0.7466,0,1.34-0.58,1.3533-1.3134c0.0133-0.7333-0.58-1.34-1.3133-1.3533l-5.74-0.0867c-2,0-2-0.7066-2-1.3333
	c0-0.6267,0-1.3333,2-1.3333h12c5.26,0,9.92,4.74,11.6066,6.6666c-1.98,2.28-4.62,4.3867-7.7266,6.18L44.5399,55.5067z"/>
</svg>
