<?xml version="1.0" encoding="UTF-8"?><svg id="Artwork" xmlns="http://www.w3.org/2000/svg" viewBox="0 0 96 96"><defs><style>.cls-1{fill:#f55600;}.cls-2{fill:#232f3e;}</style></defs><path class="cls-1" d="M79.99,29.89c0-.06,0-.11-.02-.17-.02-.12-.05-.24-.09-.36-.01-.04-.02-.09-.03-.13-.03-.07-.08-.12-.11-.18-.04-.06-.07-.13-.11-.19-.06-.09-.13-.17-.21-.25,0,0-.01-.01-.02-.02-.37-.37-.86-.6-1.4-.6h-12.16c-1.1,0-2,.9-2,2s.9,2,2,2h7.33l-15.17,15.17-10.59-10.59c-.78-.78-2.05-.78-2.83,0l-16,16c-.78.78-.78,2.05,0,2.83.39.39.9.59,1.41.59s1.02-.2,1.41-.59l14.59-14.59,10.59,10.59c.78.78,2.05.78,2.83,0l16.59-16.59v7.32c0,1.1.9,2,2,2s2-.9,2-2v-12.13s-.01-.09-.01-.13Z"/><path class="cls-2" d="M78,52.65c-1.1,0-2,.9-2,2v21.35h-16v-15c0-1.1-.9-2-2-2s-2,.9-2,2v15h-16v-7.5c0-1.1-.9-2-2-2s-2,.9-2,2v7.5h-16V18c0-1.1-.9-2-2-2s-2,.9-2,2v60c0,1.1.9,2,2,2h60c1.1,0,2-.9,2-2,0-.11-.02-.22-.03-.33.02-.11.03-.21.03-.33v-22.7c0-1.1-.9-2-2-2Z"/></svg>