<?xml version="1.0" encoding="UTF-8"?><svg id="Layer_2" xmlns="http://www.w3.org/2000/svg" viewBox="0 0 370.1 200.29"><defs><style>.cls-1{fill:#232f3e;stroke-width:0px;}</style></defs><g id="Layer_1-2"><path class="cls-1" d="M369.88,34.61c0,10.13.51,20.29-.12,30.37-.9,14.26-10.52,24.82-24.05,27.64-13.47,2.81-26.9-3.01-33.43-14.48-11.69-20.55-.42-45.33,21.94-48.25,3.05-.4,6.06-.21,9.07.33,8.01,1.44,9.64,3.59,8.93,11.56-.34,3.76-2.02,5.42-5.65,3.53-6.95-3.61-13.6-2.95-19.25,2.14-6.18,5.57-6.73,12.99-4.5,20.57,2.12,7.2,8.32,11.61,15.93,11.86,7.29.25,13.12-3.81,15.81-11.1,1.48-4.01,1.84-8.21,1.84-12.45,0-16.71-.02-33.43,0-50.14,0-4.99,1.43-5.79,9.51-6.17,4.56-.22,4.19,2.8,4.19,5.73,0,9.62,0,19.25,0,28.87-.07,0-.14,0-.21,0Z"/><path class="cls-1" d="M51.03,142.26c0-9.96.13-19.93-.06-29.89-.08-4.4,1.72-5.54,5.76-4.77,8.05,1.54,8.03,1.47,8.07,9.93.07,15.71.18,31.42.27,47.12.02,3.57.45,7.08,1.66,10.45,3.24,9.09,11.48,13.19,20.67,10.32,8.49-2.65,13.35-11.76,11.54-21.66-1.62-8.85-8-14.06-16.67-13.77-2.65.09-4.87,1.2-7.13,2.34-3.18,1.61-4.77.32-5.21-2.94-1.12-8.35,1.66-11.59,10.71-12.49,17.31-1.74,30.94,9.81,32.2,28.06.83,11.96-2.98,22.57-13.44,29.41-10.24,6.7-21.35,7.27-32.23,1.54-9.4-4.95-14.79-13.21-15.42-23.76-.6-9.93-.13-19.92-.13-29.88-.2,0-.39,0-.59,0Z"/><path class="cls-1" d="M253.47,181.55c0,4.39-.06,8.77.02,13.16.05,3-1.37,4.13-4.27,4.34-8.83.63-9.29.3-9.28-8.34,0-5.57.05-11.14.1-16.7.03-3.39-.18-6.74-.96-10.05-2.94-12.55-15.02-17.36-25.96-10.3-7.52,4.85-10.16,15.32-6.01,23.86,3.67,7.56,13.39,11.15,21.7,8.04,2.48-.93,5.36-3.61,7.14.71,1.85,4.48-.05,10.33-3.45,11.73-14.32,5.88-31.72-1.12-38.45-15.47-6.5-13.85-1.51-31.59,11.22-39.9,12.99-8.48,31.17-6.53,40.75,4.37,5.89,6.71,7.75,14.81,7.94,23.44.08,3.71.01,7.42.01,11.12-.17,0-.34,0-.51,0Z"/><path class="cls-1" d="M99.04,62.81c-5.4,0-10.81.17-16.2-.07-2.93-.13-3.3.94-2.99,3.5,1.42,11.65,11.31,17.96,23,14.37,2.39-.73,4.63-2.01,6.87-3.17,4.58-2.38,8.79-.74,10.39,4,.62,1.83-.77,2.45-1.65,3.29-6.48,6.14-14.51,8.12-23.11,8.18-14.34.09-25.24-8.79-28.38-22.87-3.79-17,2.22-32.03,15.26-38.17,19.26-9.07,39.02,3.59,38.82,24.8-.04,4.42-1.58,6.49-6.31,6.21-5.21-.32-10.46-.07-15.7-.07ZM94.14,53.07v-.02c3.7,0,7.41-.14,11.1.04,3.08.15,3.27-1.09,2.51-3.63-1.85-6.24-6.33-9.46-13.26-9.26-6.94.21-12.43,4.53-13.78,10.45-.57,2.51.67,2.44,2.33,2.43,3.7-.02,7.4,0,11.1,0Z"/><path class="cls-1" d="M274.61,63.38c-5.4,0-10.8.14-16.19-.05-2.94-.1-3.31,1.12-2.96,3.63,1.59,11.32,10.97,17.55,22.11,14.57,3.12-.84,5.97-2.26,8.72-3.94,2.43-1.48,4.59-1.48,6.7.92,3.69,4.19,3.88,5.46-.81,8.6-11.21,7.5-23.38,9.11-35.43,2.86-12.72-6.59-15.86-18.73-14.96-31.89,1.43-20.82,19.06-33.05,37.86-26.79,11.17,3.72,18.9,16.56,17,28.04-.53,3.21-2.52,4.06-5.34,4.05-5.57-.02-11.13,0-16.7,0ZM270.08,53.69c3.36,0,6.74-.24,10.08.06,4.02.36,4.07-1.44,3.04-4.43-1.86-5.37-6.36-8.61-12.29-8.67-6.67-.07-11.72,3.45-14.12,9.41-1.25,3.1-.3,3.82,2.71,3.67,3.52-.18,7.06-.04,10.58-.05Z"/><path class="cls-1" d="M157.37,170.05c-5.4,0-10.8.12-16.2-.06-2.7-.09-3.45.59-3.03,3.41,1.85,12.29,11.98,18.39,23.92,14.11,2.05-.73,3.99-1.79,5.93-2.81,4.53-2.4,8.92-.72,10.37,3.98.69,2.23-1.14,3.07-2.33,4-10.12,7.94-21.54,9.52-33.41,5.37-11.42-3.99-16.48-13.36-17.97-24.81-.7-5.36-.55-10.77.94-16.07,4.66-16.54,22.22-25.2,38.19-18.8,10.42,4.18,17.53,17.18,15.43,28.08-.58,2.99-2.47,3.65-5.13,3.62-5.57-.07-11.14-.02-16.71-.02ZM138.93,160.27c7.62,0,15.19.07,22.75-.06,1.52-.03,3.75,1.11,4.51-.86.75-1.91-.26-4.02-1.38-5.71-3.75-5.62-8.82-7.42-15.75-5.78-5.52,1.31-9.08,5.55-10.14,12.41Z"/><path class="cls-1" d="M54.56,71.32c0,5.57-.09,11.14.02,16.71.11,5.14-3.15,5.54-7.07,5.52-3.86-.01-7.22-.27-7.19-5.42.06-9.79,0-19.58.02-29.37,0-2.2-.09-4.36-.81-6.49-1.92-5.67-6.98-9.48-12.51-9.31-5.55.16-10.52,4.17-11.97,9.95-.53,2.1-.67,4.33-.69,6.51-.07,9.45-.13,18.91,0,28.36.08,5.99-3.99,5.47-7.96,5.68-4.22.22-6.35-1.37-6.32-5.76.07-10.63-.24-21.28.08-31.9.49-15.89,12.22-26.86,27.87-26.54,15.36.32,26.35,11.63,26.54,27.37.06,4.89,0,9.79,0,14.69Z"/><path class="cls-1" d="M319.34,177.7c0,5.4-.09,10.81.03,16.21.1,4.82-2.55,5.92-6.78,5.91-4.27-.01-7.39-.76-7.35-5.94.06-9.63.05-19.25.02-28.88-.04-8.93-4.86-14.85-11.87-14.69-7.6.16-13.06,6.4-13.1,15.03-.04,9.29.04,18.58-.05,27.87-.05,5.37-1.38,6.26-7.23,6.5-4.63.19-6.95-1.33-6.86-6.29.17-9.79-.1-19.59.09-29.39.3-15.95,11.66-27.13,27.3-27.12,15.08,0,25.3,10.52,25.76,26.61.14,4.72.02,9.46.02,14.19.01,0,.02,0,.03,0Z"/><path class="cls-1" d="M153.99,93.5c-6.09.21-12.16-1.52-17.58-5.31-1.9-1.33-4.66-2.3-2.2-5.75,2.2-3.09,4.04-6.05,8.42-3.9,2.11,1.04,4.05,2.47,6.21,3.36,2.85,1.17,5.9,1.44,8.95.79,3.91-.83,7.04-2.64,7.41-7.1.36-4.31-2.89-5.74-6.11-6.95-4.57-1.71-9.28-3.06-13.78-4.91-6.23-2.57-10.24-7.08-10.55-14.12-.31-7.22,2.8-12.69,8.96-16.39,8.71-5.23,22.22-4.42,30.64,1.91,1.56,1.17,4.12,2.04,2.06,5.09-1.86,2.74-3.25,5.81-7.38,4.21-2.03-.79-3.93-1.95-5.97-2.72-2.39-.91-4.93-1.22-7.47-.79-3.66.62-7.11,1.86-7.67,6.12-.55,4.17,3,5.3,5.91,6.47,3.9,1.57,7.96,2.73,11.91,4.17,7.19,2.61,12.33,6.96,12.48,15.32.15,8.43-4.4,15.13-12.36,18.51-3.66,1.56-7.46,2-11.89,2.01Z"/><path class="cls-1" d="M213.89,12.58c0,4.6.15,8.96-.05,13.31-.13,2.86.84,4.06,3.73,3.82,1.67-.14,3.38.1,5.05-.05,3.56-.32,5.61.31,5.51,4.79-.19,8.37.62,6.51-6.55,6.72-1.18.03-2.38.15-3.54-.02-3.57-.53-4.55.92-4.47,4.45.24,9.94.2,19.9.04,29.84-.08,4.73,1.81,6.95,6.58,6.64,1.34-.09,2.7-.03,4.05,0,5.83.11,8.83,5.25,6.13,10.48-.49.94-1.14,1.79-2.27,1.75-5.71-.21-11.48.9-17.11-.67-7.51-2.09-11.21-6.88-11.31-14.73-.14-10.96-.29-21.92-.16-32.88.04-3.5-.46-5.56-4.56-4.86-4.13.7-5.58-1-5.46-5.3.12-4.2.62-6.97,5.77-6.38,1.71.2,4.14,1.08,4.24-2.48.1-3.43-1.77-7.85,1.09-10.1,3.48-2.73,8.36-3.24,13.29-4.31Z"/></g></svg>