<?xml version="1.0" encoding="UTF-8"?><svg id="Artwork" xmlns="http://www.w3.org/2000/svg" viewBox="0 0 96 96"><defs><style>.cls-1{fill:#202f40;}.cls-2{fill:#f55600;}</style></defs><path class="cls-1" d="M31.73,29c.36-.62.36-1.38,0-2l-8.01-14c-.36-.62-1.02-1.01-1.74-1.01h0c-.72,0-1.38.39-1.74,1.01l-7.99,14c-.35.62-.35,1.38,0,2,.36.62,1.02,1,1.73,1h16c.71,0,1.37-.38,1.73-1ZM17.45,26l4.55-7.97,4.56,7.97h-9.11Z"/><path class="cls-1" d="M70,11c-5.51,0-10,4.49-10,10s4.49,10,10,10,10-4.49,10-10-4.49-10-10-10ZM70,27c-3.31,0-6-2.69-6-6s2.69-6,6-6,6,2.69,6,6-2.69,6-6,6Z"/><path class="cls-2" d="M38,30h16c1.1,0,2-.9,2-2v-14c0-1.1-.9-2-2-2h-16c-1.1,0-2,.9-2,2v14c0,1.1.9,2,2,2ZM40,16h12v10h-12v-10Z"/><path class="cls-1" d="M70.09,49c-.87,0-1.69.19-2.43.52-.89-2.06-3.05-3.52-5.57-3.52-1.04,0-2.03.25-2.88.69-1.05-1.61-2.95-2.69-5.12-2.69-.7,0-1.37.12-2,.33v-4.33c0-3.31-2.69-6-6-6s-6,2.69-6,6v11.39l-.3-.44c-.95-1.85-2.35-3.16-3.94-3.69-1.03-.34-2.67-.53-4.68.49-2.69,1.38-3.82,3.88-3.03,6.72,0,0,0,0,0,.01,0,.02,0,.05.01.08l4.42,15.24c.21.79.54,1.51,1.01,2.18l8.83,14.13.57.85s.04.04.05.06c.07.09.14.17.22.25.03.03.06.06.09.09.11.1.23.18.36.25.01,0,.03.01.04.02.12.06.24.11.37.14.05.01.1.02.15.03.06.01.13.03.19.04,1.18.1,2.4.16,3.61.16,9.67,0,19.33-3.72,27.21-10.48.02-.02.03-.04.05-.05.05-.05.1-.1.14-.15.04-.05.08-.09.12-.14.04-.05.07-.11.1-.16.03-.06.07-.11.09-.17.03-.06.05-.12.07-.18.02-.06.04-.12.06-.19.01-.06.02-.12.03-.18,0-.07.02-.14.02-.21,0-.03,0-.05,0-.07v-21c0-3.36-2.59-6-5.91-6ZM45.81,83.92l-8.87-14.13c-.25-.36-.4-.66-.5-1.05l-4.39-15.14s-.01-.04-.02-.07c0-.02,0-.04,0-.05,0-.01-.02-.08-.03-.1-.27-.96.02-1.56,1-2.06.93-.48,1.43-.31,1.6-.26.59.2,1.2.84,1.67,1.77.08.18.18.34.3.49l3.86,5.79s0,0,0,0c.08.13.19.24.3.34.04.03.07.06.11.09.08.06.16.12.25.17.04.03.09.05.13.07.1.05.2.08.3.11.04.01.08.03.12.04.14.03.29.05.45.05,0,0,0,0,0,0,0,0,0,0,0,0,0,0,0,0,0,0,.18,0,.34-.03.5-.07.04-.01.08-.02.12-.04.16-.06.32-.12.46-.22,0,0,0,0,.01,0,0,0,0,0,0,0,.11-.07.21-.16.3-.25.04-.04.08-.09.11-.14.04-.05.09-.1.13-.16.04-.05.06-.11.09-.17.03-.06.07-.11.09-.18.03-.06.04-.13.06-.19.02-.06.04-.12.06-.18.03-.13.04-.26.04-.39,0,0,0,0,0,0v-18c0-1.1.9-2,2-2s2,.9,2,2v14.99c0,1.1.9,2,2,2s2-.9,2-2v-5.39c0-.87.92-1.6,2-1.6s2,.73,2,1.6v2c0,1.1.9,2,2,2s2-.9,2-2c0-.87.92-1.6,2-1.6s2,.73,2,1.6v3.4c0,1.1.9,2,2,2s2-.9,2-2,.9-2,2-2,1.91.88,1.91,2v20.06c-7.02,5.77-15.47,8.94-23.91,8.94-.76,0-1.53-.03-2.28-.08Z"/></svg>